# xmcd CD database file
#
# Track frame offsets:
#	150
#	11370
#	31556
#	47003
#	67585
#
# Disc length: 1318 seconds
#
# Revision: 0
# Processed by: cddbd v1.5.1PL0 Copyright (c) Steve Scherf et al.
# Submitted via: CDex 1.51
#
DISCID=27052405
DTITLE=ViduAccent - es
DYEAR=2005
DGENRE=Game
TTITLE0=日々の遑
TTITLE1=小さなてのひら
TTITLE2=ANA〜TRANCE ver
TTITLE3=童祭〜TRANCE ver
TTITLE4=鳥の詩
EXTD=YEAR: 2005
EXTT0=
EXTT1=
EXTT2=
EXTT3=
EXTT4=
PLAYORDER=
